<svg width="22" height="22" viewBox="0 0 22 22" fill="none" xmlns="http://www.w3.org/2000/svg">
<path d="M18.2 11.1987C18.2 7.2558 14.9816 4.05 11 4.05C7.0184 4.05 3.8 7.2558 3.8 11.1987C3.8 12.2697 3.9323 12.9582 4.0952 13.4631C4.205 13.7979 4.4669 13.4676 4.5965 13.3461C5.02172 12.9473 5.58511 12.7292 6.16799 12.7376C6.75087 12.746 7.30774 12.9803 7.7213 13.3911C9.0002 14.6619 10.1801 16.4241 8.5502 18.0441C7.6754 18.9135 6.3578 19.2753 5.3552 18.3393C4.061 17.1297 2.9369 15.7221 2.3834 14.0193C2.153 13.3047 2 12.4236 2 11.1978C2 6.2505 6.0347 2.25 11 2.25C15.9653 2.25 20 6.2505 20 11.1987C20 12.4245 19.8479 13.3056 19.6166 14.0184C19.0631 15.7221 17.939 17.1297 16.6448 18.3384C15.6422 19.2753 14.3246 18.9144 13.4498 18.0441C11.8208 16.4241 12.9998 14.6619 14.2778 13.3911C14.6914 12.98 15.2485 12.7455 15.8316 12.7372C16.4147 12.7288 16.9782 12.9471 17.4035 13.3461C17.6528 13.5801 17.7761 13.8591 17.9048 13.4631C18.0677 12.9591 18.2 12.2688 18.2 11.1987Z" fill="#1A1A1A"/>
</svg>
