<svg width="24" height="24" viewBox="0 0 24 24" fill="none" xmlns="http://www.w3.org/2000/svg">
<path d="M8.68687 5.39585C8.68687 5.39585 10.321 5.33868 11.9192 5.33868C13.5174 5.33868 15.0798 5.81261 16.4086 6.70052C17.7375 7.58843 18.7733 8.85046 19.3849 10.327C19.9965 11.8035 20.1565 13.4283 19.8447 14.9958C19.5329 16.5633 18.7633 18.0031 17.6332 19.1332C16.5031 20.2633 15.0632 21.0329 13.4957 21.3447C11.9282 21.6565 10.3034 21.4965 8.8268 20.8849C7.35023 20.2733 6.08818 19.2376 5.20025 17.9087C4.31232 16.5798 3.83838 15.0175 3.83838 13.4193" stroke="#666666" stroke-width="1.5" stroke-miterlimit="10"/>
<path d="M11.9189 1.5L7.87854 5.54032L11.9189 9.58065" stroke="#666666" stroke-width="1.5" stroke-linecap="square"/>
</svg>
