<svg width="22" height="22" viewBox="0 0 22 22" fill="none" xmlns="http://www.w3.org/2000/svg">
<path d="M15.1668 8.54141L19.7512 5.67485L11.7312 0.661043C11.3877 0.446319 10.9367 0.446319 10.5932 0.661043L2.57324 5.67485L7.1576 8.54141C8.02723 7.25307 9.49809 6.40491 11.1622 6.40491C12.8263 6.40491 14.2972 7.25307 15.1668 8.54141Z" fill="white"/>
<path d="M12.2354 15.9387C14.3826 15.4448 15.993 13.5338 15.993 11.2362C15.993 11.0108 15.9608 10.8068 15.9286 10.592L20.8243 7.53223V15.5307C20.8243 15.9065 20.6311 16.25 20.3197 16.4433L12.2354 21.5V15.9387Z" fill="#808080"/>
<path d="M6.39571 10.592C6.3635 10.8068 6.33129 11.0215 6.33129 11.2362C6.33129 13.5338 7.94172 15.4448 10.089 15.9387V21.5L2.0046 16.4433C1.69325 16.25 1.5 15.8957 1.5 15.5307V7.53223L6.39571 10.592Z" fill="#B2B2B2"/>
</svg>
